<svg width="720" height="460" viewBox="0 0 720 460" fill="none" xmlns="http://www.w3.org/2000/svg">
  <defs>
    <linearGradient id="a" x1="60" y1="28" x2="638" y2="450" gradientUnits="userSpaceOnUse">
      <stop stop-color="#154364"/>
      <stop offset="1" stop-color="#2F7CB8"/>
    </linearGradient>
  </defs>
  <rect width="720" height="460" rx="24" fill="url(#a)"/>
  <ellipse cx="140" cy="400" rx="250" ry="120" fill="#0A2032" fill-opacity="0.5"/>
  <ellipse cx="586" cy="402" rx="280" ry="130" fill="#081A2A" fill-opacity="0.65"/>
  <rect x="286" y="166" width="18" height="160" rx="8" fill="#DDEAF5"/>
  <rect x="236" y="206" width="120" height="16" rx="8" fill="#DDEAF5"/>
  <rect x="240" y="218" width="16" height="106" rx="8" fill="#DDEAF5"/>
  <rect x="340" y="218" width="16" height="106" rx="8" fill="#DDEAF5"/>
  <circle cx="596" cy="116" r="44" fill="#FFD7AE"/>
  <path d="M40 332C132 300 196 302 280 324C364 346 448 382 528 368C588 358 640 320 692 286" stroke="#FF8E3D" stroke-width="10" stroke-linecap="round"/>
</svg>
