<svg width="1600" height="1000" viewBox="0 0 1600 1000" fill="none" xmlns="http://www.w3.org/2000/svg">
  <defs>
    <linearGradient id="bg" x1="126" y1="84" x2="1450" y2="920" gradientUnits="userSpaceOnUse">
      <stop stop-color="#11324D"/>
      <stop offset="0.55" stop-color="#1F4E79"/>
      <stop offset="1" stop-color="#2A6EA6"/>
    </linearGradient>
    <linearGradient id="flame" x1="800" y1="330" x2="800" y2="760" gradientUnits="userSpaceOnUse">
      <stop stop-color="#FFD4A8"/>
      <stop offset="1" stop-color="#FF6B00"/>
    </linearGradient>
  </defs>
  <rect width="1600" height="1000" fill="url(#bg)"/>
  <path d="M0 810C211 760 318 736 532 760C745 784 862 898 1065 900C1267 902 1395 770 1600 716V1000H0V810Z" fill="#0D2538" fill-opacity="0.85"/>
  <rect x="270" y="492" width="90" height="288" rx="10" fill="#9DC3E6" fill-opacity="0.6"/>
  <rect x="418" y="448" width="106" height="330" rx="10" fill="#BBD6EF" fill-opacity="0.72"/>
  <rect x="575" y="410" width="128" height="370" rx="12" fill="#D4E4F5" fill-opacity="0.76"/>
  <rect x="770" y="514" width="95" height="264" rx="10" fill="#9DC3E6" fill-opacity="0.6"/>
  <rect x="920" y="372" width="138" height="408" rx="12" fill="#D4E4F5" fill-opacity="0.8"/>
  <rect x="1110" y="474" width="98" height="304" rx="10" fill="#BBD6EF" fill-opacity="0.72"/>
  <rect x="970" y="290" width="40" height="82" rx="20" fill="#D4E4F5"/>
  <path d="M990 248C1043 301 1020 362 990 402C960 362 937 301 990 248Z" fill="url(#flame)"/>
  <path d="M160 732C325 648 512 618 694 648C875 678 1038 772 1228 760C1350 752 1464 694 1560 644" stroke="#FF8E3D" stroke-width="14" stroke-linecap="round" stroke-opacity="0.78"/>
</svg>
