<svg width="720" height="460" viewBox="0 0 720 460" fill="none" xmlns="http://www.w3.org/2000/svg">
  <defs>
    <linearGradient id="a" x1="98" y1="24" x2="604" y2="456" gradientUnits="userSpaceOnUse">
      <stop stop-color="#15334D"/>
      <stop offset="1" stop-color="#2B628F"/>
    </linearGradient>
  </defs>
  <rect width="720" height="460" rx="24" fill="url(#a)"/>
  <rect x="94" y="246" width="120" height="160" rx="14" fill="#C4DAEE"/>
  <rect x="234" y="210" width="152" height="196" rx="14" fill="#D6E7F6"/>
  <rect x="404" y="186" width="94" height="220" rx="12" fill="#C4DAEE"/>
  <rect x="516" y="226" width="106" height="180" rx="14" fill="#D6E7F6"/>
  <rect x="464" y="122" width="22" height="70" rx="11" fill="#D6E7F6"/>
  <path d="M475 82C508 114 494 154 475 178C456 154 442 114 475 82Z" fill="#FF8B32"/>
  <path d="M70 338C184 312 286 318 398 346C510 374 608 390 674 360" stroke="#FFB066" stroke-width="12" stroke-linecap="round" stroke-opacity="0.86"/>
</svg>
